<svg id="BlueIcons_-20-03" data-name="BlueIcons -20-03" xmlns="http://www.w3.org/2000/svg" width="132.543" height="111.488" viewBox="0 0 132.543 111.488">
  <g id="Layer_4">
    <g id="Group_350" data-name="Group 350">
      <path id="Path_445" data-name="Path 445" d="M19.136,34.636H6.928A6.67,6.67,0,0,0,.3,40.55c0,1.83.022,59.274,0,62.243a6.687,6.687,0,0,1,6.628-5.914H89.859v-.022l1.116.022A6.69,6.69,0,0,0,97.6,90.943c0-1.83-.022-59.274,0-62.243a6.687,6.687,0,0,1-6.628,5.914H89.457v.022H12.463" transform="translate(-0.233 -22.295)" fill="#9ac7f7"/>
      <g id="Group_342" data-name="Group 342" transform="translate(25.464 80.989)">
        <line id="Line_26" data-name="Line 26" x2="70.567" transform="translate(12.788 2.165)" fill="none" stroke="#0561fc" stroke-width="4"/>
        <line id="Line_27" data-name="Line 27" x2="60.569" transform="translate(12.788 9.797)" fill="none" stroke="#0561fc" stroke-width="4"/>
        <path id="Path_446" data-name="Path 446" d="M122.848,362.9l-6,7.521-2.745-2.566" transform="translate(-114.1 -362.9)" fill="none" stroke="#0561fc" stroke-width="4"/>
        <line id="Line_28" data-name="Line 28" x2="70.567" transform="translate(12.788 20.867)" fill="none" stroke="#0561fc" stroke-width="4"/>
        <line id="Line_29" data-name="Line 29" x2="60.569" transform="translate(12.788 28.499)" fill="none" stroke="#0561fc" stroke-width="4"/>
        <path id="Path_447" data-name="Path 447" d="M122.848,446.7l-6,7.521-2.745-2.544" transform="translate(-114.1 -427.998)" fill="none" stroke="#0561fc" stroke-width="4"/>
      </g>
      <path id="Path_448" data-name="Path 448" d="M13.948,334.2H6.7a6.7,6.7,0,1,0,0,13.39h7.275V334.2Z" transform="translate(0 -259.616)" fill="#c5e1f9"/>
      <path id="Path_449" data-name="Path 449" d="M391.422,62.243h3.37a6.67,6.67,0,0,1,6.628,5.914c-.022-2.968,0-60.413,0-62.243A6.709,6.709,0,0,0,394.77,0H391.4V62.243Z" transform="translate(-304.051)" fill="#c5e1f9"/>
      <path id="Path_450" data-name="Path 450" d="M80.007,119.779v-5.736l-5.111-.424a15.78,15.78,0,0,0-2.009-5.222L76.3,104.38l-4.062-4.062-3.906,3.3a15.479,15.479,0,0,0-5.111-2.254L62.779,96.1H57.043l-.424,5.111a15.78,15.78,0,0,0-5.222,2.009L47.38,99.8l-4.062,4.062,3.3,3.906a15.479,15.479,0,0,0-2.254,5.111l-5.267.446v5.736l5.111.424a15.477,15.477,0,0,0,2.009,5.2L42.8,128.705l4.062,4.062,3.906-3.3a15.478,15.478,0,0,0,5.111,2.254l.446,5.267h5.736l.424-5.111a15.478,15.478,0,0,0,5.2-2.009l4.017,3.415,4.062-4.062-3.281-3.906a15.479,15.479,0,0,0,2.254-5.111ZM59.565,124.13a7.588,7.588,0,1,1,7.588-7.588A7.581,7.581,0,0,1,59.565,124.13Z" transform="translate(-30.374 -74.653)" fill="#fff"/>
      <g id="Group_343" data-name="Group 343" transform="translate(103.507 4.106)">
        <path id="Path_451" data-name="Path 451" d="M466.1,157.851l6.651-22.964L479.4,111.9l6.651,22.987,6.651,22.964" transform="translate(-465.587 -91.033)" fill="none" stroke="#0561fc" stroke-width="4"/>
        <path id="Path_452" data-name="Path 452" d="M511.028,68.014a5.914,5.914,0,1,1-5.914-5.914A5.924,5.924,0,0,1,511.028,68.014Z" transform="translate(-491.3 -52.347)" fill="none" stroke="#0561fc" stroke-width="4"/>
        <line id="Line_30" data-name="Line 30" y1="9.061" transform="translate(13.814)" fill="none" stroke="#0561fc" stroke-width="4"/>
        <path id="Path_453" data-name="Path 453" d="M463.8,210.4a32.363,32.363,0,0,0,27.629,0" transform="translate(-463.8 -167.551)" fill="none" stroke="#0561fc" stroke-width="4"/>
      </g>
      <g id="Group_344" data-name="Group 344" transform="translate(17.028 29.235)">
        <line id="Line_31" data-name="Line 31" x1="1.495" transform="translate(66.103 25.308)" fill="none" stroke="#0561fc" stroke-width="4"/>
        <path id="Path_454" data-name="Path 454" d="M139.391,156.308H88.954a12.654,12.654,0,1,1,0-25.308h53.4" transform="translate(-76.3 -131)" fill="none" stroke="#0561fc" stroke-width="4" stroke-dasharray="13.547 13.547"/>
        <line id="Line_32" data-name="Line 32" x2="1.495" transform="translate(67.554)" fill="none" stroke="#0561fc" stroke-width="4"/>
      </g>
      <g id="Group_349" data-name="Group 349" transform="translate(62.867 32.427)">
        <g id="Group_348" data-name="Group 348">
          <path id="Path_455" data-name="Path 455" d="M298.7,172.474a4.374,4.374,0,1,1,4.374,4.374A4.381,4.381,0,0,1,298.7,172.474Z" transform="translate(-294.906 -163.012)" fill="none" stroke="#0561fc" stroke-width="4"/>
          <g id="Group_345" data-name="Group 345" transform="translate(8.19)">
            <line id="Line_33" data-name="Line 33" y2="4.151" transform="translate(0 14.774)" fill="none" stroke="#0561fc" stroke-width="4"/>
            <line id="Line_34" data-name="Line 34" y2="4.151" fill="none" stroke="#0561fc" stroke-width="4"/>
          </g>
          <g id="Group_346" data-name="Group 346" transform="translate(0 4.731)">
            <line id="Line_35" data-name="Line 35" x2="3.593" y2="2.075" transform="translate(12.788 7.387)" fill="none" stroke="#0561fc" stroke-width="4"/>
            <line id="Line_36" data-name="Line 36" x2="3.571" y2="2.075" fill="none" stroke="#0561fc" stroke-width="4"/>
          </g>
          <g id="Group_347" data-name="Group 347" transform="translate(0 4.731)">
            <line id="Line_37" data-name="Line 37" y1="2.075" x2="3.593" transform="translate(12.788)" fill="none" stroke="#0561fc" stroke-width="4"/>
            <line id="Line_38" data-name="Line 38" y1="2.075" x2="3.571" transform="translate(0 7.387)" fill="none" stroke="#0561fc" stroke-width="4"/>
          </g>
        </g>
      </g>
    </g>
  </g>
</svg>
