<svg id="BlueIcons_-20-10" data-name="BlueIcons -20-10" xmlns="http://www.w3.org/2000/svg" width="119.894" height="122.834" viewBox="0 0 119.894 122.834">
  <g id="Layer_4" transform="translate(0)">
    <g id="Group_415" data-name="Group 415">
      <circle id="Ellipse_15" data-name="Ellipse 15" cx="32.092" cy="32.092" r="32.092" transform="translate(9.4 55.7) rotate(-45)" fill="#c5e1f9"/>
      <circle id="Ellipse_16" data-name="Ellipse 16" cx="15.345" cy="15.345" r="15.345" transform="translate(0 25.351)" fill="#c5e1f9"/>
      <circle id="Ellipse_17" data-name="Ellipse 17" cx="5.589" cy="5.589" r="5.589" transform="translate(104.085 80.119) rotate(-45)" fill="#9ac7f7"/>
      <circle id="Ellipse_18" data-name="Ellipse 18" cx="3.496" cy="3.496" r="3.496" transform="translate(3.559 98.788)" fill="#c5e1f9"/>
      <circle id="Ellipse_19" data-name="Ellipse 19" cx="2.617" cy="2.617" r="2.617" transform="translate(27.172)" fill="#7eb3ff"/>
      <g id="Group_411" data-name="Group 411" transform="translate(95.02 96.925)">
        <line id="Line_138" data-name="Line 138" y2="3.329" transform="translate(6.071)" fill="none" stroke="#fff" stroke-miterlimit="10" stroke-width="3"/>
        <line id="Line_139" data-name="Line 139" x2="2.889" y2="1.675" transform="translate(0 3.768)" fill="none" stroke="#fff" stroke-miterlimit="10" stroke-width="3"/>
        <line id="Line_140" data-name="Line 140" y1="1.675" x2="2.889" transform="translate(0.251 9.253)" fill="none" stroke="#fff" stroke-miterlimit="10" stroke-width="3"/>
        <line id="Line_141" data-name="Line 141" y1="3.349" transform="translate(6.552 10.949)" fill="none" stroke="#fff" stroke-miterlimit="10" stroke-width="3"/>
        <line id="Line_142" data-name="Line 142" x1="2.889" y1="1.675" transform="translate(9.734 8.834)" fill="none" stroke="#fff" stroke-miterlimit="10" stroke-width="3"/>
        <line id="Line_143" data-name="Line 143" x1="2.889" y2="1.675" transform="translate(9.504 3.349)" fill="none" stroke="#fff" stroke-miterlimit="10" stroke-width="3"/>
      </g>
      <g id="Group_412" data-name="Group 412" transform="translate(2.575 6.259)">
        <line id="Line_144" data-name="Line 144" y2="3.098" transform="translate(8.332)" fill="none" stroke="#0561fc" stroke-width="3" stroke-dasharray="13.333"/>
        <line id="Line_145" data-name="Line 145" x2="2.198" y2="2.198" transform="translate(2.428 2.449)" fill="none" stroke="#0561fc" stroke-width="3" stroke-dasharray="13.333"/>
        <line id="Line_146" data-name="Line 146" x2="3.098" transform="translate(0 8.353)" fill="none" stroke="#0561fc" stroke-width="3" stroke-dasharray="13.333"/>
        <line id="Line_147" data-name="Line 147" y1="2.198" x2="2.198" transform="translate(2.428 12.058)" fill="none" stroke="#0561fc" stroke-width="3" stroke-dasharray="13.333"/>
        <line id="Line_148" data-name="Line 148" y1="3.098" transform="translate(8.332 13.586)" fill="none" stroke="#0561fc" stroke-width="3" stroke-dasharray="13.333"/>
        <line id="Line_149" data-name="Line 149" x1="2.198" y1="2.198" transform="translate(12.037 12.058)" fill="none" stroke="#0561fc" stroke-width="3" stroke-dasharray="13.333"/>
        <line id="Line_150" data-name="Line 150" x1="3.098" transform="translate(13.586 8.353)" fill="none" stroke="#0561fc" stroke-width="3" stroke-dasharray="13.333"/>
        <line id="Line_151" data-name="Line 151" x1="2.198" y2="2.198" transform="translate(12.037 2.449)" fill="none" stroke="#0561fc" stroke-width="3" stroke-dasharray="13.333"/>
      </g>
      <g id="Group_413" data-name="Group 413" transform="translate(28.449 51.435)">
        <path id="Path_526" data-name="Path 526" d="M213.789,264.97A28.727,28.727,0,0,1,214,248.6" transform="translate(-196.623 -247.993)" fill="none" stroke="#fff" stroke-miterlimit="10" stroke-width="3"/>
        <path id="Path_527" data-name="Path 527" d="M231.267,468.436c0-1.068-.712-4.836-1.591-4.836H210.291c-.879,0-1.591,3.768-1.591,4.836" transform="translate(-193.46 -417.985)" fill="none" stroke="#0561fc" stroke-miterlimit="10" stroke-width="3"/>
        <path id="Path_528" data-name="Path 528" d="M200.755,279.7a29.234,29.234,0,0,0,14.361-25.309,29.67,29.67,0,0,0-1.3-8.688H182.9a29.67,29.67,0,0,0-1.3,8.688A29.285,29.285,0,0,0,195.961,279.7v11.577" transform="translate(-172.033 -245.7)" fill="none" stroke="#0561fc" stroke-miterlimit="10" stroke-width="3"/>
        <path id="Path_529" data-name="Path 529" d="M309.2,285.03c9.546-3.287,16.308-12.979,16.391-24.43H315.5" transform="translate(-272.921 -257.481)" fill="none" stroke="#0561fc" stroke-miterlimit="10" stroke-width="3"/>
        <path id="Path_530" data-name="Path 530" d="M145.99,260.6H135.9c.084,11.451,6.845,21.143,16.391,24.43" transform="translate(-135.9 -257.481)" fill="none" stroke="#0561fc" stroke-miterlimit="10" stroke-width="3"/>
        <rect id="Rectangle_130" data-name="Rectangle 130" width="37.933" height="6.196" transform="translate(7.536 63.702)" fill="none" stroke="#0561fc" stroke-miterlimit="10" stroke-width="3"/>
        <line id="Line_152" data-name="Line 152" x1="14.507" transform="translate(19.259 57.59)" fill="none" stroke="#fff" stroke-width="3" stroke-dasharray="13.333"/>
        <path id="Path_531" data-name="Path 531" d="M217.273,498.136V490.6H184.7v7.536" transform="translate(-174.484 -439.332)" fill="none" stroke="#0561fc" stroke-miterlimit="10" stroke-width="3"/>
      </g>
      <g id="Group_414" data-name="Group 414" transform="translate(3.475 7.641)">
        <line id="Line_153" data-name="Line 153" y2="10.572" transform="translate(50.514)" fill="none" stroke="#0561fc" stroke-miterlimit="10" stroke-width="3"/>
        <line id="Line_154" data-name="Line 154" x2="5.275" y2="9.148" transform="translate(24.974 7.264)" fill="none" stroke="#0561fc" stroke-miterlimit="10" stroke-width="3"/>
        <line id="Line_155" data-name="Line 155" x2="9.169" y2="5.275" transform="translate(6.469 26.335)" fill="none" stroke="#0561fc" stroke-miterlimit="10" stroke-width="3"/>
        <line id="Line_156" data-name="Line 156" x2="10.572" transform="translate(0 52.084)" fill="none" stroke="#0561fc" stroke-miterlimit="10" stroke-width="3"/>
        <line id="Line_157" data-name="Line 157" y1="5.296" x2="9.148" transform="translate(7.264 72.348)" fill="none" stroke="#0561fc" stroke-miterlimit="10" stroke-width="3"/>
        <line id="Line_158" data-name="Line 158" y1="9.169" x2="5.275" transform="translate(26.335 86.96)" fill="none" stroke="#0561fc" stroke-miterlimit="10" stroke-width="3"/>
        <line id="Line_159" data-name="Line 159" x1="5.296" y1="9.169" transform="translate(72.348 86.186)" fill="none" stroke="#0561fc" stroke-miterlimit="10" stroke-width="3"/>
        <line id="Line_160" data-name="Line 160" x1="9.148" y1="5.296" transform="translate(86.981 70.987)" fill="none" stroke="#0561fc" stroke-miterlimit="10" stroke-width="3"/>
        <line id="Line_161" data-name="Line 161" x1="10.572" transform="translate(92.047 50.514)" fill="none" stroke="#0561fc" stroke-miterlimit="10" stroke-width="3"/>
        <line id="Line_162" data-name="Line 162" x1="9.169" y2="5.275" transform="translate(86.186 24.974)" fill="none" stroke="#0561fc" stroke-miterlimit="10" stroke-width="3"/>
        <line id="Line_163" data-name="Line 163" x1="5.296" y2="9.169" transform="translate(70.987 6.469)" fill="none" stroke="#0561fc" stroke-miterlimit="10" stroke-width="3"/>
      </g>
    </g>
  </g>
</svg>
