<svg id="BlueIcons_-20-01" data-name="BlueIcons -20-01" xmlns="http://www.w3.org/2000/svg" width="154.5" height="104.189" viewBox="0 0 154.5 104.189">
  <g id="Layer_4" transform="translate(0 0)">
    <g id="Group_333" data-name="Group 333">
      <g id="Group_320" data-name="Group 320" transform="translate(5.852 8.4)">
        <path id="Path_416" data-name="Path 416" d="M61.514,35.6H24.8v72.932H73.429V47.515Z" transform="translate(-24.8 -35.6)" fill="#c5e1f9"/>
        <g id="Group_319" data-name="Group 319" transform="translate(36.714)">
          <path id="Path_417" data-name="Path 417" d="M180.4,48.011h12.387L180.4,35.6Z" transform="translate(-180.4 -35.6)" fill="#9ac7f7"/>
        </g>
      </g>
      <g id="Group_321" data-name="Group 321" transform="translate(0 21.094)">
        <line id="Line_1" data-name="Line 1" x2="13.496" transform="translate(0.236)" fill="none" stroke="#0561fc" stroke-width="4"/>
        <line id="Line_2" data-name="Line 2" x2="32.042" transform="translate(0 6.866)" fill="none" stroke="#0561fc" stroke-width="4"/>
        <line id="Line_3" data-name="Line 3" x2="32.042" transform="translate(0 13.756)" fill="none" stroke="#0561fc" stroke-width="4"/>
        <line id="Line_4" data-name="Line 4" x2="32.042" transform="translate(0 20.622)" fill="none" stroke="#0561fc" stroke-width="4"/>
        <line id="Line_5" data-name="Line 5" x2="20.74" transform="translate(0 27.512)" fill="none" stroke="#0561fc" stroke-width="4"/>
      </g>
      <g id="Group_322" data-name="Group 322" transform="translate(109.551 72.507)">
        <path id="Path_418" data-name="Path 418" d="M489.169,319.735A12.435,12.435,0,1,1,476.734,307.3,12.436,12.436,0,0,1,489.169,319.735Z" transform="translate(-464.3 -307.3)" fill="#7eb3ff"/>
        <path id="Path_419" data-name="Path 419" d="M507.23,339.665a4.365,4.365,0,1,1-4.365-4.365A4.37,4.37,0,0,1,507.23,339.665Z" transform="translate(-490.431 -328.693)" fill="none" stroke="#0561fc" stroke-width="4"/>
        <path id="Path_420" data-name="Path 420" d="M495.424,374.4h-6.559a4.37,4.37,0,0,0-4.365,4.365v.354a11.122,11.122,0,0,0,15.29,0v-.354A4.34,4.34,0,0,0,495.424,374.4Z" transform="translate(-479.734 -358.568)" fill="none" stroke="#0561fc" stroke-width="4"/>
      </g>
      <g id="Group_331" data-name="Group 331" transform="translate(26.497 42.023)">
        <line id="Line_6" data-name="Line 6" x2="15.927" transform="translate(29.187 29.305)" fill="none" stroke="#0561fc" stroke-width="4" stroke-dasharray="13.333"/>
        <g id="Group_323" data-name="Group 323" transform="translate(0.071 12.222)">
          <path id="Path_421" data-name="Path 421" d="M126.474,252.385h-4.035c-6.489,0-9.839-5.167-9.839-11.656V230.3" transform="translate(-112.6 -230.206)" fill="none" stroke="#0561fc" stroke-width="4"/>
          <path id="Path_422" data-name="Path 422" d="M381.821,229.9v10.429c0,6.489-3.351,11.727-9.839,11.727H367.9" transform="translate(-307.662 -229.9)" fill="none" stroke="#0561fc" stroke-width="4"/>
        </g>
        <g id="Group_330" data-name="Group 330" transform="translate(14.015 9.06)">
          <g id="Group_326" data-name="Group 326">
            <g id="Group_324" data-name="Group 324" transform="translate(1.888)">
              <line id="Line_7" data-name="Line 7" y1="17.979" transform="translate(6.323)" fill="none" stroke="#0561fc" stroke-width="4"/>
              <line id="Line_8" data-name="Line 8" y1="17.979" fill="none" stroke="#0561fc" stroke-width="4"/>
            </g>
            <g id="Group_325" data-name="Group 325" transform="translate(1.888 32.561)">
              <line id="Line_9" data-name="Line 9" y1="18.003" transform="translate(6.323)" fill="none" stroke="#0561fc" stroke-width="4"/>
              <line id="Line_10" data-name="Line 10" y1="18.003" fill="none" stroke="#0561fc" stroke-width="4"/>
            </g>
            <path id="Path_423" data-name="Path 423" d="M181.822,307.584a1.269,1.269,0,0,1-1.274,1.274h-7.574a1.269,1.269,0,0,1-1.274-1.274v-12.01a1.269,1.269,0,0,1,1.274-1.274h7.574a1.269,1.269,0,0,1,1.274,1.274Z" transform="translate(-171.7 -275.943)" fill="none" stroke="#0561fc" stroke-width="4"/>
            <line id="Line_11" data-name="Line 11" y1="4.271" transform="translate(5.049 27.866)" fill="none" stroke="#0561fc" stroke-width="4"/>
          </g>
          <g id="Group_329" data-name="Group 329" transform="translate(36.148)">
            <g id="Group_327" data-name="Group 327" transform="translate(1.911)">
              <line id="Line_12" data-name="Line 12" y1="17.979" transform="translate(6.323)" fill="none" stroke="#0561fc" stroke-width="4"/>
              <line id="Line_13" data-name="Line 13" y1="17.979" fill="none" stroke="#0561fc" stroke-width="4"/>
            </g>
            <g id="Group_328" data-name="Group 328" transform="translate(1.911 32.561)">
              <line id="Line_14" data-name="Line 14" y1="18.003" transform="translate(6.323)" fill="none" stroke="#0561fc" stroke-width="4"/>
              <line id="Line_15" data-name="Line 15" y1="18.003" fill="none" stroke="#0561fc" stroke-width="4"/>
            </g>
            <path id="Path_424" data-name="Path 424" d="M335.022,307.584a1.269,1.269,0,0,1-1.274,1.274h-7.574a1.269,1.269,0,0,1-1.274-1.274v-12.01a1.269,1.269,0,0,1,1.274-1.274h7.574a1.269,1.269,0,0,1,1.274,1.274Z" transform="translate(-324.9 -275.943)" fill="none" stroke="#0561fc" stroke-width="4"/>
            <line id="Line_16" data-name="Line 16" y1="4.271" transform="translate(5.073 27.866)" fill="none" stroke="#0561fc" stroke-width="4"/>
          </g>
        </g>
        <line id="Line_17" data-name="Line 17" x2="26.12" transform="translate(24.09 34.401)" fill="none" stroke="#0561fc" stroke-width="4"/>
        <rect id="Rectangle_123" data-name="Rectangle 123" width="74.324" height="51.319" transform="translate(0 8.848)" fill="none" stroke="#0561fc" stroke-width="4"/>
        <path id="Path_425" data-name="Path 425" d="M227.5,183.22V178.1h19.938v5.12" transform="translate(-200.319 -178.1)" fill="none" stroke="#0561fc" stroke-width="4"/>
      </g>
      <path id="Path_426" data-name="Path 426" d="M424.086,0a30.851,30.851,0,0,0-23.548,50.824l-7.2,13.638,13.1-8.305A30.848,30.848,0,1,0,424.086,0Z" transform="translate(-300.424)" fill="#c5e1f9"/>
      <g id="Group_332" data-name="Group 332" transform="translate(111.581 28.196)">
        <path id="Path_427" data-name="Path 427" d="M487.529,140.594V119.5H472.9" transform="translate(-472.9 -119.5)" fill="none" stroke="#0561fc" stroke-width="4"/>
        <path id="Path_428" data-name="Path 428" d="M498.8,119.5v21.094h14.629" transform="translate(-492.689 -119.5)" fill="none" stroke="#0561fc" stroke-width="4"/>
      </g>
      <path id="Path_429" data-name="Path 429" d="M505.863,51.631a4.931,4.931,0,1,1-4.931-4.931A4.944,4.944,0,0,1,505.863,51.631Z" transform="translate(-378.969 -35.681)" fill="none" stroke="#0561fc" stroke-width="4"/>
    </g>
  </g>
</svg>
