<svg xmlns="http://www.w3.org/2000/svg" width="166.496" height="116.101" viewBox="0 0 166.496 116.101">
  <g id="BlueIcons_-20-14" data-name="BlueIcons -20-14" transform="translate(-1.076 -5.1)">
    <g id="Layer_4" transform="translate(1.4 6.6)">
      <g id="Group_458" data-name="Group 458" transform="translate(0 0)">
        <g id="Group_443" data-name="Group 443" transform="translate(40.587 12.755)">
          <path id="Path_556" data-name="Path 556" d="M194.1,110.356V91.247a30.247,30.247,0,0,1,60.493,0v19.109" transform="translate(-189.504 -61)" fill="none" stroke="#0561fc" stroke-width="3"/>
          <path id="Path_557" data-name="Path 557" d="M424.77,217.093a6.569,6.569,0,0,1-6.565,6.565h-.539a6.554,6.554,0,0,1-6.565-6.565V205.065a6.554,6.554,0,0,1,6.565-6.565h.539a6.569,6.569,0,0,1,6.565,6.565Z" transform="translate(-355.624 -166.26)" fill="#9ac7f7"/>
          <path id="Path_558" data-name="Path 558" d="M177.4,422.266V410.449c0-5.229,4.783-9.449,10.692-9.449h46.917c5.909,0,10.692,4.244,10.692,9.449v11.817" transform="translate(-176.72 -321.28)" fill="none" stroke="#0561fc" stroke-width="3"/>
          <path id="Path_559" data-name="Path 559" d="M268.885,190v19.109A23.886,23.886,0,0,1,244.993,233h0A23.886,23.886,0,0,1,221.1,209.109V190" transform="translate(-210.174 -159.753)" fill="none" stroke="#0561fc" stroke-width="3"/>
          <path id="Path_560" data-name="Path 560" d="M241.447,82.6H216.195a11.037,11.037,0,0,0-9.238,4.994h-3.8a6.955,6.955,0,0,0-.985.07,30.175,30.175,0,0,0-7.573,17.468V127.29h6.026V108.72a6.024,6.024,0,0,1,6.026-6.026H248.5a11.047,11.047,0,0,0,11.044-11.044V82.6Z" transform="translate(-189.887 -77.535)" fill="#c5e1f9"/>
          <path id="Path_561" data-name="Path 561" d="M220.3,127.29V108.72a6.024,6.024,0,0,1,6.026-6.026h41.853a11.047,11.047,0,0,0,11.044-11.044V82.6" transform="translate(-209.561 -77.535)" fill="none" stroke="#0561fc" stroke-width="3"/>
          <path id="Path_562" data-name="Path 562" d="M188.17,217.093a6.569,6.569,0,0,1-6.565,6.565h-.539a6.554,6.554,0,0,1-6.565-6.565V205.065a6.554,6.554,0,0,1,6.565-6.565h.539a6.569,6.569,0,0,1,6.565,6.565Z" transform="translate(-174.5 -166.26)" fill="#9ac7f7"/>
          <path id="Path_563" data-name="Path 563" d="M194.1,110.356V91.247A30.29,30.29,0,0,1,224.347,61" transform="translate(-189.504 -61)" fill="none" stroke="#0561fc" stroke-width="3"/>
          <path id="Path_564" data-name="Path 564" d="M304.3,405l-3.7,6.4H293.2l-3.7-6.4" transform="translate(-262.536 -324.342)" fill="none" stroke="#0561fc" stroke-width="3"/>
          <line id="Line_190" data-name="Line 190" x2="3.165" y2="14.514" transform="translate(37.515 87.012)" fill="none" stroke="#0561fc" stroke-width="3"/>
          <line id="Line_191" data-name="Line 191" y1="14.514" x2="3.165" transform="translate(28.019 87.012)" fill="none" stroke="#0561fc" stroke-width="3"/>
          <path id="Path_565" data-name="Path 565" d="M370.088,311.5a6.344,6.344,0,0,1-6.354,6.354H345" transform="translate(-305.023 -252.765)" fill="none" stroke="#0561fc" stroke-width="3"/>
          <line id="Line_192" data-name="Line 192" y2="13.06" transform="translate(36.296 40.024)" fill="none" stroke="#0561fc" stroke-width="3"/>
        </g>
        <g id="Group_444" data-name="Group 444" transform="translate(31.653)">
          <path id="Path_566" data-name="Path 566" d="M136.4,13.423V11.782A5.179,5.179,0,0,1,141.558,6.6h4.15a5.163,5.163,0,0,1,5.158,5.182V15.3c0,1.641-1.266,2.978-2.931,4.033l-3.658,3.025" transform="translate(-136.4 -6.6)" fill="none" stroke="#0561fc" stroke-width="3"/>
          <path id="Path_567" data-name="Path 567" d="M156,72.575V69.058c0-1.641,1.266-2.978,2.931-4.033L162.612,62" transform="translate(-151.404 -49.01)" fill="none" stroke="#0561fc" stroke-width="3"/>
          <line id="Line_193" data-name="Line 193" y2="4.033" transform="translate(4.596 26.917)" fill="none" stroke="#0561fc" stroke-width="3"/>
        </g>
        <g id="Group_445" data-name="Group 445" transform="translate(18.406 60.259)">
          <line id="Line_194" data-name="Line 194" y1="24.291" fill="none" stroke="#0561fc" stroke-width="3"/>
          <line id="Line_195" data-name="Line 195" y2="4.009" transform="translate(0 28.418)" fill="none" stroke="#0561fc" stroke-width="3"/>
        </g>
        <g id="Group_448" data-name="Group 448" transform="translate(0 0.094)">
          <g id="Group_447" data-name="Group 447">
            <line id="Line_196" data-name="Line 196" x1="4.83" y1="4.83" transform="translate(4.736 4.713)" fill="none" stroke="#0561fc" stroke-width="3"/>
            <g id="Group_446" data-name="Group 446">
              <line id="Line_197" data-name="Line 197" x1="6.682" y1="1.477" transform="translate(0 12.403)" fill="none" stroke="#0561fc" stroke-width="3"/>
              <line id="Line_198" data-name="Line 198" x1="1.501" y1="6.659" transform="translate(12.403)" fill="none" stroke="#0561fc" stroke-width="3"/>
            </g>
          </g>
        </g>
        <g id="Group_451" data-name="Group 451" transform="translate(0.117 27.55)">
          <g id="Group_449" data-name="Group 449">
            <path id="Path_568" data-name="Path 568" d="M31.045,124.1H1.9v25.135H6.425l6.659,6.659v-6.659h17.96Z" transform="translate(-1.9 -124.1)" fill="#c5e1f9"/>
          </g>
          <g id="Group_450" data-name="Group 450" transform="translate(4.109 2.811)">
            <circle id="Ellipse_20" data-name="Ellipse 20" cx="6.847" cy="6.847" r="6.847" transform="translate(0 9.682) rotate(-45)" fill="none" stroke="#0561fc" stroke-linejoin="round" stroke-miterlimit="10" stroke-width="3"/>
            <line id="Line_199" data-name="Line 199" x2="4.15" y2="4.15" transform="translate(12.187 12.523)" fill="none" stroke="#0561fc" stroke-linejoin="round" stroke-miterlimit="10" stroke-width="3"/>
          </g>
        </g>
        <g id="Group_453" data-name="Group 453" transform="translate(117.868 82.346)">
          <g id="Group_452" data-name="Group 452">
            <path id="Path_569" data-name="Path 569" d="M504.1,389.594h29.145V364.459h-4.5L522.06,357.8v6.659H504.1Z" transform="translate(-504.1 -357.8)" fill="#7eb3ff"/>
          </g>
          <path id="Path_570" data-name="Path 570" d="M533.1,424.5l4.056-6.987,4.033-7.011,4.056,7.011,4.033,6.987" transform="translate(-526.3 -398.143)" fill="none" stroke="#0561fc" stroke-linejoin="round" stroke-miterlimit="10" stroke-width="3"/>
          <line id="Line_200" data-name="Line 200" x2="11.208" transform="translate(9.285 22.298)" fill="none" stroke="#0561fc" stroke-linejoin="round" stroke-miterlimit="10" stroke-width="3"/>
        </g>
        <g id="Group_454" data-name="Group 454" transform="translate(122.886 3.822)">
          <path id="Path_571" data-name="Path 571" d="M540.521,288.6v1.876l-4.549,9.871-4.572-9.871V288.6" transform="translate(-530.017 -226.301)" fill="none" stroke="#0561fc" stroke-width="3"/>
          <rect id="Rectangle_131" data-name="Rectangle 131" width="11.888" height="57.586" transform="translate(0 6.19)" fill="#7eb3ff"/>
          <path id="Path_572" data-name="Path 572" d="M540.544,28.2V23.861a.977.977,0,0,0-1.008-.961h-7.128a.977.977,0,0,0-1.008.961V28.2" transform="translate(-530.017 -22.9)" fill="none" stroke="#0561fc" stroke-width="3"/>
          <line id="Line_201" data-name="Line 201" x1="11.888" transform="translate(0 6.19)" fill="none" stroke="#0561fc" stroke-width="3"/>
        </g>
        <g id="Group_457" data-name="Group 457" transform="translate(129.001 21.524)">
          <path id="Path_573" data-name="Path 573" d="M575.43,163.881a1.767,1.767,0,0,0-.469-1.594,28.583,28.583,0,0,0-5.956-1.923,1.79,1.79,0,0,0-1.336.352c-.422.657-.844,1.336-1.266,1.993a1.6,1.6,0,0,1-2.3.023,26.566,26.566,0,0,1-6-5.979c-.633-.868-.586-1.923.047-2.3.656-.422,1.336-.844,1.993-1.266a1.867,1.867,0,0,0,.352-1.336c-.516-1.923-1.219-3.986-1.923-5.956a1.687,1.687,0,0,0-1.594-.469,12.939,12.939,0,0,0-4.385,2.837c-.352.352-.68.75-1.008,1.149a19.3,19.3,0,0,0,6,13.763c.023,0,.023.023.047.023l.047.047a19.392,19.392,0,0,0,13.763,6,11.415,11.415,0,0,0,1.149-1.008A12.508,12.508,0,0,0,575.43,163.881Z" transform="translate(-551.58 -134.361)" fill="#0561fc"/>
          <g id="Group_456" data-name="Group 456" transform="translate(19.302)">
            <g id="Group_455" data-name="Group 455">
              <line id="Line_202" data-name="Line 202" x1="3.517" y2="3.517" transform="translate(7.48 6.19)" fill="none" stroke="#0561fc" stroke-width="3"/>
              <line id="Line_203" data-name="Line 203" x1="2.087" y2="4.502" fill="none" stroke="#0561fc" stroke-width="3"/>
              <line id="Line_204" data-name="Line 204" x1="4.502" y2="2.11" transform="translate(12.732 15.076)" fill="none" stroke="#0561fc" stroke-width="3"/>
              <line id="Line_205" data-name="Line 205" x1="3.517" y2="3.517" transform="translate(7.48 6.19)" fill="none" stroke="#0561fc" stroke-width="3"/>
            </g>
          </g>
        </g>
      </g>
    </g>
  </g>
</svg>
