<svg xmlns="http://www.w3.org/2000/svg" width="169.305" height="122.834" viewBox="0 0 169.305 122.834">
  <g id="BlueIcons_-20-06" data-name="BlueIcons -20-06" transform="translate(-5.2)">
    <g id="Layer_4" transform="translate(6.7)">
      <g id="Group_385" data-name="Group 385">
        <g id="Group_375" data-name="Group 375" transform="translate(67.241 3.192)">
          <path id="Path_478" data-name="Path 478" d="M309.365,22.523l-9.98,9.98,8.122,9.6a38.427,38.427,0,0,0-5.574,12.553L289,55.726v14.1l12.529,1.048a38.207,38.207,0,0,0,4.954,12.815L298.1,93.6l9.98,9.98,9.6-8.122a37.875,37.875,0,0,0,12.553,5.55L331.3,113.94h14.1l1.048-12.529a38.206,38.206,0,0,0,12.815-4.954l9.909,8.384,9.98-9.98-8.075-9.623a37.875,37.875,0,0,0,5.55-12.553l12.934-1.072v-14.1l-12.529-1.048a38.207,38.207,0,0,0-4.954-12.815l8.384-9.909-9.98-9.98-9.623,8.122a38.649,38.649,0,0,0-12.553-5.55L347.237,13.4h-14.1l-1.048,12.529a38.207,38.207,0,0,0-12.815,4.954Zm40.992,30.083a15.647,15.647,0,1,1-22.128,0A15.627,15.627,0,0,1,350.358,52.606Z" transform="translate(-289 -13.4)" fill="#9ac7f7"/>
        </g>
        <path id="Path_479" data-name="Path 479" d="M6.7,165.579A18.572,18.572,0,0,1,25.279,147H125.461a18.579,18.579,0,0,1,0,37.158H25.279A18.572,18.572,0,0,1,6.7,165.579Z" transform="translate(-6.7 -111.986)" fill="none" stroke="#0561fc" stroke-width="3" stroke-dasharray="13.314 13.314"/>
        <g id="Group_380" data-name="Group 380" transform="translate(11.076 44.565)">
          <g id="Group_379" data-name="Group 379">
            <path id="Path_480" data-name="Path 480" d="M69.7,213.6a4.5,4.5,0,1,1,4.5,4.5A4.5,4.5,0,0,1,69.7,213.6Z" transform="translate(-65.77 -203.86)" fill="none" stroke="#0561fc" stroke-width="3"/>
            <g id="Group_376" data-name="Group 376" transform="translate(8.456)">
              <line id="Line_93" data-name="Line 93" y2="4.264" transform="translate(0 15.22)" fill="none" stroke="#0561fc" stroke-width="3"/>
              <line id="Line_94" data-name="Line 94" y2="4.264" fill="none" stroke="#0561fc" stroke-width="3"/>
            </g>
            <g id="Group_377" data-name="Group 377" transform="translate(0 4.883)">
              <line id="Line_95" data-name="Line 95" x2="3.692" y2="2.144" transform="translate(13.196 7.598)" fill="none" stroke="#0561fc" stroke-width="3"/>
              <line id="Line_96" data-name="Line 96" x2="3.692" y2="2.12" fill="none" stroke="#0561fc" stroke-width="3"/>
            </g>
            <g id="Group_378" data-name="Group 378" transform="translate(0 4.883)">
              <line id="Line_97" data-name="Line 97" y1="2.12" x2="3.692" transform="translate(13.196)" fill="none" stroke="#0561fc" stroke-width="3"/>
              <line id="Line_98" data-name="Line 98" y1="2.144" x2="3.692" transform="translate(0 7.598)" fill="none" stroke="#0561fc" stroke-width="3"/>
            </g>
          </g>
        </g>
        <g id="Group_382" data-name="Group 382" transform="translate(38.92)">
          <g id="Group_381" data-name="Group 381">
            <path id="Path_481" data-name="Path 481" d="M170.124,52a2,2,0,0,0,2,2h1.715a2.8,2.8,0,0,0-.214,1.024v4.049h13.72V55.022A2.389,2.389,0,0,0,187.131,54h1.715a2,2,0,0,0,2-2V2a2,2,0,0,0-2-2H172.1a2,2,0,0,0-2,2V52Z" transform="translate(-170.1)" fill="#c5e1f9"/>
            <line id="Line_99" data-name="Line 99" y2="49.758" transform="translate(10.409 59.119)" fill="#fff" stroke="#0561fc" stroke-width="3"/>
            <path id="Path_482" data-name="Path 482" d="M199.74,445.424l3.954,4.835-2.31,10.385H196.81l-2.31-10.385,3.954-4.859Z" transform="translate(-188.688 -339.31)" fill="none" stroke="#0561fc" stroke-width="3"/>
            <line id="Line_100" data-name="Line 100" y1="42.66" transform="translate(14.434 5.669)" fill="#fff" stroke="#0561fc" stroke-width="3"/>
            <line id="Line_101" data-name="Line 101" y1="42.66" transform="translate(6.383 5.669)" fill="#fff" stroke="#0561fc" stroke-width="3"/>
            <line id="Line_102" data-name="Line 102" x1="20.818" transform="translate(0.024 53.759)" fill="#fff" stroke="#0561fc" stroke-width="3"/>
          </g>
        </g>
        <g id="Group_384" data-name="Group 384" transform="translate(108.496 46.137)">
          <g id="Group_383" data-name="Group 383">
            <path id="Path_483" data-name="Path 483" d="M487.8,198.7a5,5,0,1,1-5-5A5,5,0,0,1,487.8,198.7Z" transform="translate(-474.084 -193.7)" fill="none" stroke="#0561fc" stroke-width="3"/>
            <path id="Path_484" data-name="Path 484" d="M474.681,238H467.2a5,5,0,0,0-5,5v.4a12.726,12.726,0,0,0,17.483,0V243A5.017,5.017,0,0,0,474.681,238Z" transform="translate(-462.2 -227.448)" fill="none" stroke="#0561fc" stroke-width="3"/>
          </g>
        </g>
      </g>
    </g>
  </g>
</svg>
