<svg xmlns="http://www.w3.org/2000/svg" width="134.569" height="136.222" viewBox="0 0 134.569 136.222">
  <g id="BlueIcons_-20-16" data-name="BlueIcons -20-16" transform="translate(0 -5.2)">
    <g id="Layer_4" transform="translate(0 6.7)">
      <g id="Group_481" data-name="Group 481">
        <g id="Group_467" data-name="Group 467" transform="translate(34.957 8.087)">
          <rect id="Rectangle_133" data-name="Rectangle 133" width="33.499" height="113.71" transform="translate(0.928 2.431)" fill="#c5e1f9"/>
          <rect id="Rectangle_134" data-name="Rectangle 134" width="35.355" height="5.988" fill="#c5e1f9"/>
        </g>
        <path id="Path_584" data-name="Path 584" d="M116.35,362.6v45.475H91.8V362.6" transform="translate(-71.515 -283.958)" fill="none" stroke="#0561fc" stroke-width="3"/>
        <rect id="Rectangle_135" data-name="Rectangle 135" width="25.942" height="5.458" transform="translate(19.578 73.251)" fill="none" stroke="#0561fc" stroke-width="3"/>
        <g id="Group_468" data-name="Group 468" transform="translate(24.284 84.852)">
          <line id="Line_228" data-name="Line 228" x2="3.292" fill="#fff" stroke="#0561fc" stroke-width="3"/>
          <line id="Line_229" data-name="Line 229" x2="3.27" transform="translate(6.585)" fill="#fff" stroke="#0561fc" stroke-width="3"/>
          <line id="Line_230" data-name="Line 230" x2="3.292" transform="translate(13.148)" fill="#fff" stroke="#0561fc" stroke-width="3"/>
        </g>
        <g id="Group_469" data-name="Group 469" transform="translate(24.284 91.061)">
          <line id="Line_231" data-name="Line 231" x2="3.292" fill="#fff" stroke="#0561fc" stroke-width="3"/>
          <line id="Line_232" data-name="Line 232" x2="3.27" transform="translate(6.585)" fill="#fff" stroke="#0561fc" stroke-width="3"/>
          <line id="Line_233" data-name="Line 233" x2="3.292" transform="translate(13.148)" fill="#fff" stroke="#0561fc" stroke-width="3"/>
        </g>
        <g id="Group_470" data-name="Group 470" transform="translate(24.284 97.292)">
          <line id="Line_234" data-name="Line 234" x2="3.292" fill="#fff" stroke="#0561fc" stroke-width="3"/>
          <line id="Line_235" data-name="Line 235" x2="3.27" transform="translate(6.585)" fill="#fff" stroke="#0561fc" stroke-width="3"/>
          <line id="Line_236" data-name="Line 236" x2="3.292" transform="translate(13.148)" fill="#fff" stroke="#0561fc" stroke-width="3"/>
        </g>
        <g id="Group_471" data-name="Group 471" transform="translate(24.284 103.501)">
          <line id="Line_237" data-name="Line 237" x2="3.292" fill="#fff" stroke="#0561fc" stroke-width="3"/>
          <line id="Line_238" data-name="Line 238" x2="3.27" transform="translate(6.585)" fill="#fff" stroke="#0561fc" stroke-width="3"/>
          <line id="Line_239" data-name="Line 239" x2="3.292" transform="translate(13.148)" fill="#fff" stroke="#0561fc" stroke-width="3"/>
        </g>
        <g id="Group_472" data-name="Group 472" transform="translate(24.284 109.711)">
          <line id="Line_240" data-name="Line 240" x2="3.292" fill="#fff" stroke="#0561fc" stroke-width="3"/>
          <line id="Line_241" data-name="Line 241" x2="3.27" transform="translate(6.585)" fill="#fff" stroke="#0561fc" stroke-width="3"/>
          <line id="Line_242" data-name="Line 242" x2="3.292" transform="translate(13.148)" fill="#fff" stroke="#0561fc" stroke-width="3"/>
        </g>
        <g id="Group_473" data-name="Group 473" transform="translate(24.284 115.942)">
          <line id="Line_243" data-name="Line 243" x2="3.292" fill="#fff" stroke="#0561fc" stroke-width="3"/>
          <line id="Line_244" data-name="Line 244" x2="3.27" transform="translate(6.585)" fill="#fff" stroke="#0561fc" stroke-width="3"/>
          <line id="Line_245" data-name="Line 245" x2="3.292" transform="translate(13.148)" fill="#fff" stroke="#0561fc" stroke-width="3"/>
        </g>
        <line id="Line_246" data-name="Line 246" x1="134.569" transform="translate(0 124.869)" fill="none" stroke="#0561fc" stroke-width="3"/>
        <g id="Group_474" data-name="Group 474" transform="translate(75.505 29.322)">
          <rect id="Rectangle_136" data-name="Rectangle 136" width="30.405" height="74.996" transform="translate(0 19.799)" fill="none" stroke="#0561fc" stroke-width="3"/>
          <rect id="Rectangle_137" data-name="Rectangle 137" width="22.008" height="7.645" transform="translate(4.22 12.131)" fill="none" stroke="#0561fc" stroke-width="3"/>
          <line id="Line_247" data-name="Line 247" x2="17.744" transform="translate(6.342 27.93)" fill="none" stroke="#0561fc" stroke-width="3"/>
          <line id="Line_248" data-name="Line 248" x2="17.744" transform="translate(6.342 37.432)" fill="none" stroke="#0561fc" stroke-width="3"/>
          <line id="Line_249" data-name="Line 249" x2="17.744" transform="translate(6.342 46.911)" fill="none" stroke="#0561fc" stroke-width="3"/>
          <line id="Line_250" data-name="Line 250" x2="17.744" transform="translate(6.342 56.413)" fill="none" stroke="#0561fc" stroke-width="3"/>
          <line id="Line_251" data-name="Line 251" x2="17.744" transform="translate(6.342 65.915)" fill="none" stroke="#0561fc" stroke-width="3"/>
          <line id="Line_252" data-name="Line 252" x2="17.744" transform="translate(6.342 75.394)" fill="none" stroke="#0561fc" stroke-width="3"/>
          <line id="Line_253" data-name="Line 253" x2="17.744" transform="translate(6.342 84.896)" fill="none" stroke="#0561fc" stroke-width="3"/>
          <line id="Line_254" data-name="Line 254" y1="11.07" transform="translate(15.225)" fill="none" stroke="#0561fc" stroke-width="3"/>
        </g>
        <line id="Line_255" data-name="Line 255" x1="10.606" transform="translate(51.486 133.221)" fill="none" stroke="#0561fc" stroke-width="3"/>
        <line id="Line_256" data-name="Line 256" x1="33.455" transform="translate(65.34 133.221)" fill="none" stroke="#0561fc" stroke-width="3"/>
        <line id="Line_257" data-name="Line 257" x2="4.176" transform="translate(44.26 133.221)" fill="none" stroke="#0561fc" stroke-width="3"/>
        <path id="Path_585" data-name="Path 585" d="M521.661,351.691a8.336,8.336,0,0,1-8.331,8.33h0a8.336,8.336,0,0,1-8.331-8.33V319.23a8.336,8.336,0,0,1,8.331-8.33h0a8.336,8.336,0,0,1,8.331,8.33Z" transform="translate(-393.411 -243.682)" fill="#7eb3ff"/>
        <g id="Group_475" data-name="Group 475" transform="translate(114.881 70.489)">
          <line id="Line_258" data-name="Line 258" y2="53.784" transform="translate(5.038)" fill="none" stroke="#0561fc" stroke-width="3"/>
          <line id="Line_259" data-name="Line 259" y1="5.038" x2="5.038" transform="translate(5.038 34.935)" fill="none" stroke="#0561fc" stroke-width="3"/>
          <line id="Line_260" data-name="Line 260" x1="5.038" y1="5.038" transform="translate(0 34.935)" fill="none" stroke="#0561fc" stroke-width="3"/>
          <line id="Line_261" data-name="Line 261" y1="5.016" x2="5.038" transform="translate(5.038 25.345)" fill="none" stroke="#0561fc" stroke-width="3"/>
          <line id="Line_262" data-name="Line 262" x1="5.038" y1="5.016" transform="translate(0 25.345)" fill="none" stroke="#0561fc" stroke-width="3"/>
          <line id="Line_263" data-name="Line 263" y1="5.016" x2="5.038" transform="translate(5.038 15.755)" fill="none" stroke="#0561fc" stroke-width="3"/>
          <line id="Line_264" data-name="Line 264" x1="5.038" y1="5.016" transform="translate(0 15.755)" fill="none" stroke="#0561fc" stroke-width="3"/>
          <line id="Line_265" data-name="Line 265" y1="5.038" x2="5.038" transform="translate(5.038 6.143)" fill="none" stroke="#0561fc" stroke-width="3"/>
          <line id="Line_266" data-name="Line 266" x1="5.038" y1="5.038" transform="translate(0 6.143)" fill="none" stroke="#0561fc" stroke-width="3"/>
        </g>
        <g id="Group_477" data-name="Group 477" transform="translate(56.877 93.558)">
          <path id="Path_586" data-name="Path 586" d="M280.6,441.7A11.6,11.6,0,1,1,269,430.1,11.6,11.6,0,0,1,280.6,441.7Z" transform="translate(-257.4 -430.1)" fill="#7eb3ff"/>
          <g id="Group_476" data-name="Group 476" transform="translate(5.767 7.027)">
            <line id="Line_267" data-name="Line 267" y2="23.268" transform="translate(5.038)" fill="#fff" stroke="#0561fc" stroke-width="3"/>
            <line id="Line_268" data-name="Line 268" y1="5.038" x2="5.016" transform="translate(5.038 6.916)" fill="#fff" stroke="#0561fc" stroke-width="3"/>
            <line id="Line_269" data-name="Line 269" x1="5.038" y1="5.038" transform="translate(0 4.397)" fill="#fff" stroke="#0561fc" stroke-width="3"/>
          </g>
        </g>
        <g id="Group_480" data-name="Group 480" transform="translate(27.069)">
          <g id="Group_478" data-name="Group 478">
            <path id="Path_587" data-name="Path 587" d="M157.855,24.377c0,9.767-17.677,36.548-17.677,36.548S122.5,34.144,122.5,24.377a17.677,17.677,0,0,1,35.355,0Z" transform="translate(-122.5 -6.7)" fill="none" stroke="#0561fc" stroke-width="3"/>
          </g>
          <g id="Group_479" data-name="Group 479" transform="translate(9.833 10.805)">
            <path id="Path_588" data-name="Path 588" d="M182.689,63.444a7.844,7.844,0,1,1-7.844-7.844A7.846,7.846,0,0,1,182.689,63.444Z" transform="translate(-167 -55.6)" fill="none" stroke="#0561fc" stroke-width="3"/>
          </g>
        </g>
      </g>
    </g>
  </g>
</svg>
