<svg id="BlueIcons_-20-15" data-name="BlueIcons -20-15" xmlns="http://www.w3.org/2000/svg" width="145.813" height="133.221" viewBox="0 0 145.813 133.221">
  <g id="Layer_4">
    <g id="Group_466" data-name="Group 466">
      <circle id="Ellipse_21" data-name="Ellipse 21" cx="5.444" cy="5.444" r="5.444" transform="translate(121.4 61.485) rotate(-1.263)" fill="#7eb3ff"/>
      <g id="Group_459" data-name="Group 459" transform="translate(9.43 53.298)">
        <path id="Path_574" data-name="Path 574" d="M61,234v17.4a3.908,3.908,0,0,0,3.895,3.895h0A3.908,3.908,0,0,0,68.79,251.4" transform="translate(-56.536 -234)" fill="none" stroke="#0561fc" stroke-width="3"/>
        <line id="Line_206" data-name="Line 206" x2="10.113" transform="translate(0 8.587)" fill="none" stroke="#0561fc" stroke-width="3"/>
      </g>
      <g id="Group_460" data-name="Group 460" transform="translate(127.481 79.195)">
        <path id="Path_575" data-name="Path 575" d="M586.6,376.923v-23.87a5.346,5.346,0,0,1,5.353-5.353h0a5.346,5.346,0,0,1,5.353,5.353" transform="translate(-580.473 -347.7)" fill="none" stroke="#0561fc" stroke-width="3"/>
        <line id="Line_207" data-name="Line 207" x2="13.871" transform="translate(0 12.117)" fill="none" stroke="#0561fc" stroke-width="3"/>
      </g>
      <g id="Group_462" data-name="Group 462" transform="translate(112.904 29.496)">
        <g id="Group_461" data-name="Group 461">
          <line id="Line_208" data-name="Line 208" x1="3.417" y2="3.417" transform="translate(7.289 6.036)" fill="none" stroke="#0561fc" stroke-width="3"/>
          <line id="Line_209" data-name="Line 209" x1="2.05" y2="4.396" fill="none" stroke="#0561fc" stroke-width="3"/>
          <line id="Line_210" data-name="Line 210" x1="4.396" y2="2.05" transform="translate(12.368 14.645)" fill="none" stroke="#0561fc" stroke-width="3"/>
          <line id="Line_211" data-name="Line 211" x1="3.417" y2="3.417" transform="translate(7.289 6.036)" fill="none" stroke="#0561fc" stroke-width="3"/>
        </g>
      </g>
      <g id="Group_463" data-name="Group 463" transform="translate(0 10.432)">
        <path id="Path_576" data-name="Path 576" d="M0,45.8H47.922V74.408H40.338v9l-9.931-9H0Z" transform="translate(0 -45.8)" fill="#7eb3ff"/>
        <line id="Line_212" data-name="Line 212" x1="29.2" transform="translate(9.361 10.887)" fill="none" stroke="#0561fc" stroke-width="3"/>
        <line id="Line_213" data-name="Line 213" x1="29.2" transform="translate(9.361 18.244)" fill="none" stroke="#0561fc" stroke-width="3"/>
      </g>
      <g id="Group_464" data-name="Group 464" transform="translate(38.151 45.394)">
        <path id="Path_577" data-name="Path 577" d="M208.67,278.32h-6.719a2.547,2.547,0,0,1-2.551-2.551V229.851a2.547,2.547,0,0,1,2.551-2.551h2.961" transform="translate(-192.134 -220.923)" fill="none" stroke="#0561fc" stroke-width="3"/>
        <path id="Path_578" data-name="Path 578" d="M326.073,227.3h4.9a2.547,2.547,0,0,1,2.551,2.551v45.918a2.547,2.547,0,0,1-2.551,2.551H286.1" transform="translate(-259.087 -220.923)" fill="none" stroke="#0561fc" stroke-width="3"/>
        <path id="Path_579" data-name="Path 579" d="M189.275,310.577v15.488a8.5,8.5,0,0,1-8.5,8.5H176a8.5,8.5,0,0,1-8.5-8.5V289.9a8.5,8.5,0,0,1,8.5-8.5" transform="translate(-167.5 -262.7)" fill="none" stroke="#0561fc" stroke-width="3"/>
        <path id="Path_580" data-name="Path 580" d="M244.314,242.667a4.267,4.267,0,0,1-4.259,4.259h-8.5a4.267,4.267,0,0,1-4.259-4.259V203.559a4.267,4.267,0,0,1,4.259-4.259h8.5a4.267,4.267,0,0,1,4.259,4.259Z" transform="translate(-213.679 -199.3)" fill="#c5e1f9"/>
        <path id="Path_581" data-name="Path 581" d="M320.4,206.8h32v26.353h-32" transform="translate(-285.574 -205.092)" fill="none" stroke="#0561fc" stroke-width="3"/>
        <rect id="Rectangle_132" data-name="Rectangle 132" width="23.733" height="14.463" transform="translate(37.377 7.653)" fill="#c5e1f9"/>
        <line id="Line_214" data-name="Line 214" x2="6.377" transform="translate(35.031 34.621)" fill="none" stroke="#0561fc" stroke-width="3"/>
        <line id="Line_215" data-name="Line 215" x2="6.377" transform="translate(44.05 34.621)" fill="none" stroke="#0561fc" stroke-width="3"/>
        <line id="Line_216" data-name="Line 216" x2="6.377" transform="translate(53.07 34.621)" fill="none" stroke="#0561fc" stroke-width="3"/>
        <line id="Line_217" data-name="Line 217" x2="6.4" transform="translate(62.089 34.621)" fill="none" stroke="#0561fc" stroke-width="3"/>
        <line id="Line_218" data-name="Line 218" x2="6.377" transform="translate(35.031 41.112)" fill="none" stroke="#0561fc" stroke-width="3"/>
        <line id="Line_219" data-name="Line 219" x2="6.377" transform="translate(44.05 41.112)" fill="none" stroke="#0561fc" stroke-width="3"/>
        <line id="Line_220" data-name="Line 220" x2="6.377" transform="translate(53.07 41.112)" fill="none" stroke="#0561fc" stroke-width="3"/>
        <line id="Line_221" data-name="Line 221" x2="6.4" transform="translate(62.089 41.112)" fill="none" stroke="#0561fc" stroke-width="3"/>
        <line id="Line_222" data-name="Line 222" x2="6.377" transform="translate(35.031 47.581)" fill="none" stroke="#0561fc" stroke-width="3"/>
        <line id="Line_223" data-name="Line 223" x2="6.377" transform="translate(44.05 47.581)" fill="none" stroke="#0561fc" stroke-width="3"/>
        <line id="Line_224" data-name="Line 224" x2="6.377" transform="translate(53.07 47.581)" fill="none" stroke="#0561fc" stroke-width="3"/>
        <line id="Line_225" data-name="Line 225" x2="6.4" transform="translate(62.089 47.581)" fill="none" stroke="#0561fc" stroke-width="3"/>
      </g>
      <g id="Group_465" data-name="Group 465" transform="translate(68.262 109.374)">
        <path id="Path_582" data-name="Path 582" d="M335.869,504.047H299.7v-16.24h6.446V480.2l8.4,7.607h21.319Z" transform="translate(-299.7 -480.2)" fill="#9ac7f7"/>
        <line id="Line_226" data-name="Line 226" x2="24.736" transform="translate(6.172 15.534)" fill="#fff" stroke="#0561fc" stroke-width="3"/>
      </g>
      <path id="Path_583" data-name="Path 583" d="M266.578,0C254.712,0,245.1,8.4,245.1,18.791a16.975,16.975,0,0,0,3.485,10.25l-2.392,8.951,10.113-2.71a23.844,23.844,0,0,0,10.272,2.278c11.867,0,21.478-8.4,21.478-18.791C288.057,8.4,278.445,0,266.578,0Z" transform="translate(-189.274)" fill="#c5e1f9"/>
      <line id="Line_227" data-name="Line 227" x2="15.989" transform="translate(69.902 20.112)" fill="none" stroke="#0561fc" stroke-width="3" stroke-dasharray="13.333"/>
    </g>
  </g>
</svg>
