<svg xmlns="http://www.w3.org/2000/svg" width="101.37" height="124.136" viewBox="0 0 101.37 124.136">
  <g id="BlueIcons_-20-08" data-name="BlueIcons -20-08" transform="translate(0 -6.276)">
    <g id="Layer_4" transform="translate(0 8.1)">
      <g id="Group_406" data-name="Group 406">
        <path id="Path_493" data-name="Path 493" d="M67.524,410.912A25.612,25.612,0,1,1,41.912,385.3,25.6,25.6,0,0,1,67.524,410.912Z" transform="translate(-13.228 -314.212)" fill="#c5e1f9"/>
        <path id="Path_494" data-name="Path 494" d="M171.1,330.863a6.531,6.531,0,0,0,6.54,6.54h0a6.543,6.543,0,0,0,6.54-6.54V300.2" transform="translate(-138.854 -245.15)" fill="none" stroke="#0561fc" stroke-width="3"/>
        <path id="Path_495" data-name="Path 495" d="M296.975,501.487A15.887,15.887,0,1,1,281.087,485.6,15.889,15.889,0,0,1,296.975,501.487Z" transform="translate(-215.22 -395.61)" fill="#c5e1f9"/>
        <path id="Path_496" data-name="Path 496" d="M393.815,406.307a5.107,5.107,0,1,1-5.107-5.107A5.1,5.1,0,0,1,393.815,406.307Z" transform="translate(-311.306 -327.116)" fill="#c5e1f9"/>
        <path id="Path_497" data-name="Path 497" d="M412.568,494.784a9.084,9.084,0,1,1-9.084-9.084A9.089,9.089,0,0,1,412.568,494.784Z" transform="translate(-320.071 -395.691)" fill="#c5e1f9"/>
        <g id="Group_404" data-name="Group 404" transform="translate(37.975)">
          <g id="Group_403" data-name="Group 403" transform="translate(0 29.645)">
            <path id="Path_498" data-name="Path 498" d="M207.38,167.8a15.707,15.707,0,0,0-3.468,20.618c1.734-.075,3.487-.132,5.258-.188Z" transform="translate(-201.5 -167.348)" fill="none" stroke="#0561fc" stroke-width="3"/>
            <path id="Path_499" data-name="Path 499" d="M329.628,165.4,327.8,186.282c1.979.057,3.958.113,5.88.207a15.738,15.738,0,0,0-4.052-21.089Z" transform="translate(-303.997 -165.4)" fill="none" stroke="#0561fc" stroke-width="3"/>
          </g>
          <path id="Path_500" data-name="Path 500" d="M232.129,52.294h16.6l1.96-22.389A23.979,23.979,0,0,0,240.44,8.1a23.879,23.879,0,0,0-10.252,21.805Z" transform="translate(-224.704 -8.1)" fill="none" stroke="#0561fc" stroke-width="3"/>
          <path id="Path_501" data-name="Path 501" d="M272.252,276.526c0,2.111-3.826,8.933-3.826,8.933,0,.151-3.826-6.8-3.826-8.933a3.826,3.826,0,1,1,7.652,0Z" transform="translate(-252.708 -222.833)" fill="none" stroke="#0561fc" stroke-width="3"/>
          <path id="Path_502" data-name="Path 502" d="M252.52,15.827a40.362,40.362,0,0,1,7.5.7,24.043,24.043,0,0,0-7.5-8.424A24.1,24.1,0,0,0,245,16.524,40.872,40.872,0,0,1,252.52,15.827Z" transform="translate(-236.802 -8.1)" fill="none" stroke="#0561fc" stroke-width="3"/>
          <path id="Path_503" data-name="Path 503" d="M267.08,76.49a5.39,5.39,0,1,1-5.39-5.39A5.389,5.389,0,0,1,267.08,76.49Z" transform="translate(-245.972 -59.227)" fill="#c5e1f9"/>
          <line id="Line_125" data-name="Line 125" x2="18.507" transform="translate(6.464 39.087)" fill="none" stroke="#0561fc" stroke-width="3"/>
        </g>
        <line id="Line_126" data-name="Line 126" x2="2.638" transform="translate(83.432 40.877)" fill="none" stroke="#0561fc" stroke-width="3"/>
        <line id="Line_127" data-name="Line 127" x2="2.62" transform="translate(72.878 15.115)" fill="none" stroke="#0561fc" stroke-width="3"/>
        <line id="Line_128" data-name="Line 128" x2="2.62" transform="translate(24.5 27.685)" fill="none" stroke="#0561fc" stroke-width="3"/>
        <line id="Line_129" data-name="Line 129" x2="2.62" transform="translate(24.387 61.608)" fill="none" stroke="#0561fc" stroke-width="3"/>
        <line id="Line_130" data-name="Line 130" x2="2.62" transform="translate(0 72.275)" fill="none" stroke="#0561fc" stroke-width="3"/>
        <line id="Line_131" data-name="Line 131" y2="29.325" transform="translate(67.903 59.29)" fill="none" stroke="#0561fc" stroke-width="3"/>
        <line id="Line_132" data-name="Line 132" x1="0.113" y1="17.056" transform="translate(39.954 63.662)" fill="none" stroke="#0561fc" stroke-width="3"/>
        <path id="Path_504" data-name="Path 504" d="M78.326,365.6v28.835a22.175,22.175,0,0,1-22.144,22.182h0A22.2,22.2,0,0,1,34,394.435" transform="translate(-27.592 -298.225)" fill="none" stroke="#0561fc" stroke-width="3"/>
        <path id="Path_505" data-name="Path 505" d="M93.225,439.729a17.388,17.388,0,1,1-15.1-19.412" transform="translate(-47.542 -342.521)" fill="none" stroke="#0561fc" stroke-width="3"/>
        <path id="Path_506" data-name="Path 506" d="M116.027,513.763A10.313,10.313,0,1,1,95.56,511.2" transform="translate(-77.486 -416.385)" fill="none" stroke="#0561fc" stroke-width="3"/>
        <path id="Path_507" data-name="Path 507" d="M339.421,350.5a5.707,5.707,0,0,1-5.71,5.71h0A5.719,5.719,0,0,1,328,350.5V300.2" transform="translate(-266.185 -245.15)" fill="none" stroke="#0561fc" stroke-width="3"/>
        <line id="Line_133" data-name="Line 133" y1="30.512" transform="translate(56.086 72.105)" fill="none" stroke="#0561fc" stroke-width="3"/>
        <path id="Path_508" data-name="Path 508" d="M305.7,526.907a10.881,10.881,0,1,0,8.971-15.812" transform="translate(-248.087 -416.28)" fill="none" stroke="#0561fc" stroke-width="3"/>
        <path id="Path_509" data-name="Path 509" d="M396.524,306H389.4l6.144-6.841,6.163-6.86,6.144,6.86L414.013,306h-7.124v19.355" transform="translate(-316.013 -238.739)" fill="none" stroke="#0561fc" stroke-width="3"/>
        <g id="Group_405" data-name="Group 405" transform="translate(6.634 43.478)">
          <path id="Path_510" data-name="Path 510" d="M35.2,245.358l6.558-6.558,6.558,6.558" transform="translate(-35.2 -238.8)" fill="none" stroke="#9ac7f7" stroke-width="3"/>
          <line id="Line_134" data-name="Line 134" y2="27.553" transform="translate(6.558)" fill="none" stroke="#9ac7f7" stroke-width="3"/>
        </g>
      </g>
    </g>
  </g>
</svg>
