<svg xmlns="http://www.w3.org/2000/svg" width="140.148" height="112.488" viewBox="0 0 140.148 112.488">
  <g id="BlueIcons_-20-04" data-name="BlueIcons -20-04" transform="translate(1.5 1.5)">
    <g id="Layer_4" transform="translate(0 0)">
      <g id="Group_358" data-name="Group 358">
        <g id="Group_352" data-name="Group 352" transform="translate(0 17.705)">
          <path id="Path_456" data-name="Path 456" d="M6.7,476.6a6.457,6.457,0,0,0,6.446,6.446h53.7" transform="translate(-6.7 -391.264)" fill="none" stroke="#0561fc" stroke-width="3"/>
          <path id="Path_457" data-name="Path 457" d="M100.2,116.6H64.5v78.517h53.631V134.536" transform="translate(-51.827 -110.198)" fill="none" stroke="#0561fc" stroke-width="3"/>
          <g id="Group_351" data-name="Group 351" transform="translate(53.894 8.858)">
            <path id="Path_458" data-name="Path 458" d="M252.5,137.733h9.933L252.5,127.8Z" transform="translate(-252.5 -127.8)" fill="none" stroke="#0561fc" stroke-width="3"/>
          </g>
          <line id="Line_39" data-name="Line 39" x2="22.496" transform="translate(19.229 17.87)" fill="none" stroke="#0561fc" stroke-width="3"/>
          <line id="Line_40" data-name="Line 40" x2="23.856" transform="translate(34.051 67.247)" fill="none" stroke="#0561fc" stroke-width="3"/>
          <line id="Line_41" data-name="Line 41" x2="23.856" transform="translate(34.051 75.031)" fill="none" stroke="#0561fc" stroke-width="3"/>
          <line id="Line_42" data-name="Line 42" x2="39.511" transform="translate(19.163 49.97)" fill="none" stroke="#0561fc" stroke-width="3"/>
          <line id="Line_43" data-name="Line 43" x2="39.511" transform="translate(19.163 58.674)" fill="none" stroke="#0561fc" stroke-width="3"/>
          <rect id="Rectangle_126" data-name="Rectangle 126" width="39.599" height="18.264" transform="translate(19.12 25.149)" fill="#9ac7f7"/>
          <rect id="Rectangle_127" data-name="Rectangle 127" width="10.985" height="11.928" transform="translate(19.12 65.099)" fill="#c5e1f9"/>
          <path id="Path_459" data-name="Path 459" d="M19.539,93.342a6.373,6.373,0,0,0-12.717,0H6.8v78.671h.022a6.373,6.373,0,0,1,12.717,0h.022V93.342Z" transform="translate(-6.778 -87.4)" fill="none" stroke="#0561fc" stroke-width="3"/>
        </g>
        <g id="Group_355" data-name="Group 355" transform="translate(42.054)">
          <g id="Group_354" data-name="Group 354">
            <g id="Group_353" data-name="Group 353" transform="translate(29.03 18.188)">
              <path id="Path_460" data-name="Path 460" d="M330.9,89.6v5.482a14.12,14.12,0,0,0,28.241,0V89.6Z" transform="translate(-330.9 -89.6)" fill="none" stroke="#0561fc" stroke-width="3"/>
              <path id="Path_461" data-name="Path 461" d="M503.4,89.6v5.482a14.12,14.12,0,0,0,28.241,0V89.6Z" transform="translate(-465.577 -89.6)" fill="none" stroke="#0561fc" stroke-width="3"/>
            </g>
            <path id="Path_462" data-name="Path 462" d="M455.2,84.506a12.337,12.337,0,0,1,11.533,0" transform="translate(-398.916 -66.318)" fill="none" stroke="#0561fc" stroke-width="3"/>
            <path id="Path_463" data-name="Path 463" d="M504.8,11.572l2.916-2.916a6.855,6.855,0,0,1,9.691,0L533.15,24.4" transform="translate(-437.64 -6.65)" fill="none" stroke="#0561fc" stroke-width="3"/>
            <path id="Path_464" data-name="Path 464" d="M198.5,11.572l2.916-2.916a6.855,6.855,0,0,1,9.691,0L226.85,24.4" transform="translate(-198.5 -6.65)" fill="none" stroke="#0561fc" stroke-width="3"/>
          </g>
          <line id="Line_44" data-name="Line 44" x1="7.192" y2="7.192" transform="translate(36.792 18.122)" fill="none" stroke="#0561fc" stroke-width="3"/>
          <line id="Line_45" data-name="Line 45" x1="7.192" y2="7.192" transform="translate(71.063 25.314)" fill="none" stroke="#0561fc" stroke-width="3"/>
        </g>
        <path id="Path_465" data-name="Path 465" d="M509.228,155.1l11.752,23.132H506.4" transform="translate(-396.835 -122.551)" fill="none" stroke="#0561fc" stroke-linejoin="bevel" stroke-width="3"/>
        <g id="Group_357" data-name="Group 357" transform="translate(73.979 44.236)">
          <path id="Path_466" data-name="Path 466" d="M344.1,282.3v39.292a6.606,6.606,0,0,0,6.6,6.6h30.609a6.606,6.606,0,0,0,6.6-6.6V282.3Z" transform="translate(-344.1 -266.097)" fill="#7eb3ff"/>
          <path id="Path_467" data-name="Path 467" d="M511.6,327.6h11.8a3.818,3.818,0,0,1,3.815,3.815V348.8a3.818,3.818,0,0,1-3.815,3.815H511.6" transform="translate(-474.874 -301.464)" fill="none" stroke="#0561fc" stroke-width="3"/>
          <g id="Group_356" data-name="Group 356" transform="translate(13.552)">
            <path id="Path_468" data-name="Path 468" d="M473.589,208.4c-3.618,3.355,3.64,6.709,0,10.064" transform="translate(-457.936 -208.4)" fill="none" stroke="#c5e1f9" stroke-width="3"/>
            <path id="Path_469" data-name="Path 469" d="M440.289,218.464c3.64-3.355-3.618-6.709,0-10.064" transform="translate(-431.937 -208.4)" fill="none" stroke="#c5e1f9" stroke-width="3"/>
            <path id="Path_470" data-name="Path 470" d="M406.959,218.464c3.64-3.355-3.64-6.709,0-10.064" transform="translate(-405.908 -208.4)" fill="none" stroke="#c5e1f9" stroke-width="3"/>
          </g>
          <line id="Line_46" data-name="Line 46" x2="18.001" transform="translate(0.11 56.745)" fill="#fff" stroke="#0561fc" stroke-width="3"/>
          <line id="Line_47" data-name="Line 47" x2="3.135" transform="translate(21.049 56.745)" fill="#fff" stroke="#0561fc" stroke-width="3"/>
          <line id="Line_48" data-name="Line 48" x2="43.414" transform="translate(0 20.479)" fill="none" stroke="#0561fc" stroke-width="3"/>
          <line id="Line_49" data-name="Line 49" y2="15.085" transform="translate(4.802 23.68)" fill="none" stroke="#fff" stroke-width="3"/>
          <line id="Line_50" data-name="Line 50" y2="4.495" transform="translate(4.802 42.339)" fill="none" stroke="#fff" stroke-width="3"/>
        </g>
      </g>
    </g>
  </g>
</svg>
