<svg xmlns="http://www.w3.org/2000/svg" width="136.749" height="113.324" viewBox="0 0 136.749 113.324">
  <g id="BlueIcons_-20-02" data-name="BlueIcons -20-02" transform="translate(0 2)">
    <g id="Layer_4" transform="translate(0 0)">
      <g id="Group_341" data-name="Group 341" transform="translate(0 0)">
        <path id="Path_430" data-name="Path 430" d="M118.92,112.427H102.4V61.9h67.829v50.527" transform="translate(-79.588 -50.544)" fill="none" stroke="#0561fc" stroke-width="4"/>
        <path id="Path_431" data-name="Path 431" d="M187.179,90.6v22.651L176.831,99.467,166.668,113l-6.583-8.743-8.373,11.13-1.831,2.448H131.2V90.6Z" transform="translate(-102.463 -73.339)" fill="#c5e1f9"/>
        <g id="Group_337" data-name="Group 337" transform="translate(32.09 50.63)">
          <path id="Path_432" data-name="Path 432" d="M166.077,437.84h-12.92a5.654,5.654,0,0,1-5.658-5.658V421.957a5.654,5.654,0,0,1,5.658-5.658h12.92" transform="translate(-147.5 -382.663)" fill="none" stroke="#0561fc" stroke-width="4"/>
          <path id="Path_433" data-name="Path 433" d="M376.6,416.3h13.619a5.654,5.654,0,0,1,5.658,5.658v10.225a5.654,5.654,0,0,1-5.658,5.658H376.6" transform="translate(-329.468 -382.663)" fill="none" stroke="#0561fc" stroke-width="4"/>
          <path id="Path_434" data-name="Path 434" d="M263.055,427.855H234.5V399.3h28.555v28.555Z" transform="translate(-216.602 -369.161)" fill="none" stroke="#0561fc" stroke-width="4"/>
          <path id="Path_435" data-name="Path 435" d="M181.483,454.641A3.641,3.641,0,1,1,177.841,451,3.635,3.635,0,0,1,181.483,454.641Z" transform="translate(-168.707 -410.225)" fill="none" stroke="#0561fc" stroke-width="4"/>
          <rect id="Rectangle_124" data-name="Rectangle 124" width="7.262" height="7.262" transform="translate(52.378 40.775)" fill="none" stroke="#0561fc" stroke-width="4"/>
          <g id="Group_335" data-name="Group 335" transform="translate(12.981)">
            <path id="Path_436" data-name="Path 436" d="M210.6,252.8v14.751a4.785,4.785,0,0,0,4.793,4.793h28.8a4.785,4.785,0,0,0,4.793-4.793V252.8Z" transform="translate(-210.6 -252.8)" fill="none" stroke="#0561fc" stroke-width="4"/>
            <line id="Line_18" data-name="Line 18" x2="38.41" transform="translate(0 5.493)" fill="none" stroke="#0561fc" stroke-width="4"/>
            <g id="Group_334" data-name="Group 334" transform="translate(5.822 9.258)">
              <line id="Line_19" data-name="Line 19" y2="5.843" fill="none" stroke="#0561fc" stroke-width="4"/>
              <line id="Line_20" data-name="Line 20" y2="5.843" transform="translate(8.579)" fill="none" stroke="#0561fc" stroke-width="4"/>
              <line id="Line_21" data-name="Line 21" y2="5.843" transform="translate(17.158)" fill="none" stroke="#0561fc" stroke-width="4"/>
              <line id="Line_22" data-name="Line 22" y2="5.843" transform="translate(25.716)" fill="none" stroke="#0561fc" stroke-width="4"/>
            </g>
          </g>
          <g id="Group_336" data-name="Group 336" transform="translate(22.404 22.63)">
            <line id="Line_23" data-name="Line 23" y1="7.55" fill="none" stroke="#0561fc" stroke-width="4"/>
            <line id="Line_24" data-name="Line 24" y1="7.55" transform="translate(19.544)" fill="none" stroke="#0561fc" stroke-width="4"/>
          </g>
          <path id="Path_437" data-name="Path 437" d="M267.9,458.38l3.827-7.18h7.694l3.847,7.18" transform="translate(-243.13 -410.383)" fill="none" stroke="#0561fc" stroke-width="4"/>
        </g>
        <g id="Group_338" data-name="Group 338" transform="translate(98.006 30.119)">
          <rect id="Rectangle_125" data-name="Rectangle 125" width="36.743" height="30.612" fill="none" stroke="#0561fc" stroke-width="4"/>
          <path id="Path_438" data-name="Path 438" d="M467.9,218.064l8.5-8.764,10.986,11.829,8.353-5.575,7.8,6.686" transform="translate(-467.9 -197.738)" fill="none" stroke="#0561fc" stroke-width="4"/>
          <path id="Path_439" data-name="Path 439" d="M554.464,180.182a4.382,4.382,0,1,1-4.382-4.382A4.372,4.372,0,0,1,554.464,180.182Z" transform="translate(-529.694 -171.13)" fill="#7eb3ff"/>
        </g>
        <ellipse id="Ellipse_13" data-name="Ellipse 13" cx="11.665" cy="11.665" rx="11.665" ry="11.665" transform="matrix(0.162, -0.987, 0.987, 0.162, 0, 102.611)" fill="#c5e1f9"/>
        <path id="Path_440" data-name="Path 440" d="M48.793,443.065,43.3,437.572l5.493-5.472" transform="translate(-32.647 -344.583)" fill="none" stroke="#0561fc" stroke-width="4"/>
        <circle id="Ellipse_14" data-name="Ellipse 14" cx="11.665" cy="11.665" r="11.665" transform="translate(100.102 92.991) rotate(-45)" fill="#c5e1f9"/>
        <path id="Path_441" data-name="Path 441" d="M545,443.065l5.472-5.493L545,432.1" transform="translate(-431.133 -344.583)" fill="none" stroke="#0561fc" stroke-width="4"/>
        <path id="Path_442" data-name="Path 442" d="M61.169,123.91a5.093,5.093,0,0,0,.062-.555,3.806,3.806,0,0,0-5.04-3.641,7.954,7.954,0,0,0-7.859-6.789,7.756,7.756,0,0,0-1.708.185,9.708,9.708,0,0,0-16.643,4.2H29.96a5.751,5.751,0,0,0-5.76,5.76,5.339,5.339,0,0,0,.062.823H61.169Z" transform="translate(-17.476 -88.669)" fill="#7eb3ff"/>
        <g id="Group_340" data-name="Group 340" transform="translate(98.006)">
          <path id="Path_443" data-name="Path 443" d="M489.6,17.624V28.4H467.9V6.7h10.76" transform="translate(-467.9 -6.7)" fill="none" stroke="#0561fc" stroke-width="4"/>
          <g id="Group_339" data-name="Group 339" transform="translate(12.364)">
            <path id="Path_444" data-name="Path 444" d="M550.6,12.584V6.7h-5.9" transform="translate(-541.264 -6.7)" fill="none" stroke="#0561fc" stroke-width="4"/>
            <line id="Line_25" data-name="Line 25" x1="8.538" y2="8.517" transform="translate(0 0.802)" fill="none" stroke="#0561fc" stroke-width="4"/>
          </g>
        </g>
      </g>
    </g>
  </g>
</svg>
