<svg xmlns="http://www.w3.org/2000/svg" width="93.637" height="53.278" viewBox="0 0 93.637 53.278">
  <g id="Group_243" data-name="Group 243" transform="translate(-360.98 -287)">
    <path id="Path_252" data-name="Path 252" d="M382.073,320.2h7.675a4.57,4.57,0,0,0,.507,2.347,3.475,3.475,0,0,0,3.243,1.565,4.517,4.517,0,0,0,2.781-.8,3,3,0,0,0,1.257-1.86,2,2,0,0,0-.553-1.8c-.495-.53-1.765-1.03-3.822-1.5q-5.04-1.182-6.926-3.135a5.37,5.37,0,0,1-1.354-4.99,8.1,8.1,0,0,1,1.837-3.767,9.913,9.913,0,0,1,3.976-2.787,17.707,17.707,0,0,1,6.538-1.011q4.954,0,7.226,1.841t2.034,5.863l-.024.438h-7.584a3.354,3.354,0,0,0-.8-2.539,3.493,3.493,0,0,0-2.506-.789,3.652,3.652,0,0,0-2.207.589,2.248,2.248,0,0,0-.964,1.439,1.206,1.206,0,0,0,.377,1.107,5.471,5.471,0,0,0,2.512.951,28.544,28.544,0,0,1,7.086,2.287,6.042,6.042,0,0,1,2.78,2.865,6.632,6.632,0,0,1,.343,3.827,9.8,9.8,0,0,1-2.207,4.58,11.041,11.041,0,0,1-4.421,3.183,17.009,17.009,0,0,1-6.419,1.084q-6.59,0-8.671-2.539a8.472,8.472,0,0,1-1.71-6.452Z" transform="translate(7.386 5.433)" fill="#003189" fill-rule="evenodd"/>
    <path id="Path_253" data-name="Path 253" d="M403.333,302.786h7.992l-3.113,17.3h8.159l-1.383,7.572H398.836l4.5-24.872Z" transform="translate(13.297 5.548)" fill="#003189" fill-rule="evenodd"/>
    <path id="Path_254" data-name="Path 254" d="M412.2,320.2l7.675.007a4.564,4.564,0,0,0,.507,2.341,3.473,3.473,0,0,0,3.243,1.565,4.517,4.517,0,0,0,2.781-.8,3,3,0,0,0,1.257-1.86,2,2,0,0,0-.554-1.8c-.493-.53-1.762-1.03-3.82-1.5q-5.04-1.182-6.926-3.135a5.371,5.371,0,0,1-1.354-4.99,8.085,8.085,0,0,1,1.837-3.767,9.913,9.913,0,0,1,3.976-2.787,17.708,17.708,0,0,1,6.538-1.011q4.956,0,7.226,1.841t2.033,5.863l-.045.407-7.563.032a3.354,3.354,0,0,0-.8-2.539,3.493,3.493,0,0,0-2.506-.789,3.652,3.652,0,0,0-2.207.589,2.258,2.258,0,0,0-.964,1.439,1.2,1.2,0,0,0,.377,1.107,5.471,5.471,0,0,0,2.512.951,28.545,28.545,0,0,1,7.086,2.287,6.048,6.048,0,0,1,2.78,2.865,6.632,6.632,0,0,1,.343,3.827,9.8,9.8,0,0,1-2.207,4.58A11.041,11.041,0,0,1,429,328.1a17.009,17.009,0,0,1-6.419,1.084q-6.588,0-8.671-2.539a7.784,7.784,0,0,1-1.726-4.358l1.246-.649h-1.283a12.006,12.006,0,0,1,.053-1.447Z" transform="translate(17.975 5.433)" fill="#003189" fill-rule="evenodd"/>
    <path id="Path_255" data-name="Path 255" d="M412.9,287c-7.014,2.723-14.313,5.513-21.358,10.172-6.35,4.2-13.266,10.144-18.034,18.488-7.786,13.82.98,24.587,20.083,24.222-11,1.076-22.4.3-28.8-6.648a12.98,12.98,0,0,1-3.5-12.04,25.167,25.167,0,0,1,3.527-8.121C372.932,299.6,393.95,289.733,412.9,287Z" fill="#ca0017" fill-rule="evenodd"/>
    <path id="Path_256" data-name="Path 256" d="M381.659,304.747c7.7-4.73,15.3-9.983,31.278-10.945,8.513-.124,12.425,4.3,10.772,11.613,3.5-4.491,4.829-7.972,3.411-11.1a7.736,7.736,0,0,0-5.453-4.4,21.64,21.64,0,0,0-7.261-.386c-10.974.753-24.483,7.6-32.747,15.223Z" transform="translate(7.261 0.845)" fill="#ca0017" fill-rule="evenodd"/>
  </g>
</svg>
