<svg xmlns="http://www.w3.org/2000/svg" width="77.985" height="73.497" viewBox="0 0 77.985 73.497">
  <g id="leaves" transform="translate(-16.566 -11.247)">
    <g id="Group_275" data-name="Group 275" transform="translate(85.377 40.399)">
      <path id="Path_381" data-name="Path 381" d="M33.087,24.675a4.587,4.587,0,1,1,4.587-4.587A4.593,4.593,0,0,1,33.087,24.675Zm0-6.116a1.529,1.529,0,1,0,1.529,1.529A1.532,1.532,0,0,0,33.087,18.558Z" transform="translate(-28.5 -15.5)" fill="#fff"/>
    </g>
    <g id="Group_281" data-name="Group 281" transform="translate(73.832 66.394)">
      <path id="Path_387" data-name="Path 387" d="M24.8,25.957v1.318c3.113-.954,6.315-2.177,9.325-2.823A11.2,11.2,0,0,0,30.918,24a22.656,22.656,0,0,0-6.193,1.092A5.8,5.8,0,0,1,24.8,25.957Z" transform="translate(-24.725 -24)" fill="#fff"/>
    </g>
    <g id="Group_285" data-name="Group 285" transform="translate(25.839 11.34)">
      <path id="Path_391" data-name="Path 391" d="M27.342,33.024A13.08,13.08,0,0,1,18.3,29.4c-2.648-2.547-3.3-5.8-3.924-8.933-.7-3.529-1.37-6.866-4.636-10A2.29,2.29,0,0,1,11.1,6.533l.379-.04c7.294-.734,16.371-1.645,23.61,5.315a13.223,13.223,0,0,1,3.829,9.273,11.96,11.96,0,0,1-3.376,8.688,11.5,11.5,0,0,1-8.2,3.254ZM15.8,10.711a25.187,25.187,0,0,1,3.067,8.86c.557,2.78.994,4.976,2.606,6.523,2.768,2.664,7.774,3.474,10.823.434a7.427,7.427,0,0,0,2.031-5.4,8.579,8.579,0,0,0-2.422-6.012c-4.633-4.453-10.5-4.786-16.1-4.407Z" transform="translate(-9.032 -5.998)" fill="#fff"/>
    </g>
    <g id="Group_286" data-name="Group 286" transform="translate(62.445 11.247)">
      <path id="Path_392" data-name="Path 392" d="M30.431,27.585c-.214,0-.431-.006-.648-.021a8.867,8.867,0,0,1-6.245-2.875,10.4,10.4,0,0,1,.875-14.505c5.933-5.337,13.349-4.364,18.765-3.648a2.515,2.515,0,0,1,2.037,1.612,2.272,2.272,0,0,1-.511,2.4c-2.471,2.226-3.049,4.694-3.658,7.315-.578,2.48-1.174,5.043-3.407,7.052A10.939,10.939,0,0,1,30.431,27.585ZM27.483,13.593a5.8,5.8,0,0,0-.489,8.08,4.355,4.355,0,0,0,3.064,1.315,6.432,6.432,0,0,0,4.511-1.48c1.159-1.043,1.532-2.648,2.009-4.682a21.365,21.365,0,0,1,2.184-6.171c-4.028-.318-8.028.015-11.279,2.939Z" transform="translate(-21.002 -5.968)" fill="#fff"/>
    </g>
    <g id="Group_287" data-name="Group 287" transform="translate(45.338 24.151)">
      <path id="Path_393" data-name="Path 393" d="M26.83,32.387C24.861,21.756,15.5,13.771,15.408,13.692l2.954-3.5c.437.367,10.716,9.141,12.979,21.365Z" transform="translate(-15.408 -10.187)" fill="#fff"/>
    </g>
    <g id="Group_288" data-name="Group 288" transform="translate(56.721 23.906)">
      <path id="Path_394" data-name="Path 394" d="M23.717,32.148l-4.587-.024c0-.544.2-13.423,14.475-22.016l2.364,3.93C23.993,21.251,23.723,31.707,23.717,32.148Z" transform="translate(-19.13 -10.107)" fill="#fff"/>
    </g>
    <g id="Group_289" data-name="Group 289" transform="translate(16.566 48.045)">
      <path id="Path_395" data-name="Path 395" d="M16.7,48.582H8.294A2.3,2.3,0,0,1,6,46.289V20.294A2.3,2.3,0,0,1,8.294,18c10.719,0,15.713,3.722,15.918,3.881a2.293,2.293,0,0,1,.823,2.422L18.918,46.891A2.3,2.3,0,0,1,16.7,48.582Zm-6.116-4.587h4.361l5.193-19.178a26,26,0,0,0-9.557-2.162v21.34Z" transform="translate(-6 -18)" fill="#fff"/>
    </g>
    <g id="Group_290" data-name="Group 290" transform="translate(27.148 64.103)">
      <path id="Path_396" data-name="Path 396" d="M38.635,43.891c-7.367,0-21.441-6.116-29.175-9.759l1.957-4.15c12.569,5.927,22.49,9.325,27.218,9.325,6.2,0,20.282-6.7,27.659-10.563a7.843,7.843,0,0,0-3.957-.905c-2.685,0-6,1.1-9.214,2.177-3.557,1.187-7.236,2.41-10.664,2.41-6.447,0-14.952-3.067-15.309-3.2l1.566-4.312c.08.031,8.11,2.921,13.744,2.921,2.685,0,6-1.1,9.214-2.177,3.557-1.187,7.236-2.41,10.664-2.41,7.581,0,9.688,5.049,9.774,5.266a2.289,2.289,0,0,1-1.021,2.859C70.166,31.884,48.29,43.891,38.635,43.891Z" transform="translate(-9.46 -23.251)" fill="#fff"/>
    </g>
    <g id="Group_291" data-name="Group 291" transform="translate(53.354 58.397)">
      <path id="Path_397" data-name="Path 397" d="M34,32.716H29.409V31.34A3.847,3.847,0,0,0,26.35,27.59l-8.321-1.713.927-4.493L27.274,23.1A8.445,8.445,0,0,1,34,31.336v1.379Z" transform="translate(-18.029 -21.385)" fill="#fff"/>
    </g>
    <g id="Group_292" data-name="Group 292" transform="translate(32.253 54.106)">
      <path id="Path_398" data-name="Path 398" d="M0,0H4.59V15.481H0Z" transform="translate(0 4.499) rotate(-78.465)" fill="#fff"/>
    </g>
  </g>
</svg>
