<svg xmlns="http://www.w3.org/2000/svg" width="87.813" height="72.968" viewBox="0 0 87.813 72.968">
  <g id="mission" transform="translate(-8.806 -6.957)">
    <g id="Group_294" data-name="Group 294" transform="translate(76.698 6.957)">
      <path id="Path_400" data-name="Path 400" d="M0,0H2.744V5.488H0Z" transform="translate(0 1.94) rotate(-45)" fill="#fff"/>
    </g>
    <g id="Group_295" data-name="Group 295" transform="translate(87.854 18.115)">
      <path id="Path_401" data-name="Path 401" d="M0,0H2.744V5.488H0Z" transform="translate(0 1.94) rotate(-45)" fill="#fff"/>
    </g>
    <g id="Group_296" data-name="Group 296" transform="translate(87.372 6.959)">
      <path id="Path_402" data-name="Path 402" d="M0,0H5.488V2.744H0Z" transform="translate(0 3.88) rotate(-45)" fill="#fff"/>
    </g>
    <g id="Group_297" data-name="Group 297" transform="translate(12.922 34.647)">
      <path id="Path_403" data-name="Path 403" d="M7.616,21.732a4.116,4.116,0,1,1,4.116-4.116A4.121,4.121,0,0,1,7.616,21.732Zm0-5.488a1.372,1.372,0,1,0,1.372,1.372A1.373,1.373,0,0,0,7.616,16.244Z" transform="translate(-3.5 -13.5)" fill="#fff"/>
    </g>
    <g id="Group_304" data-name="Group 304" transform="translate(19.783 31.902)">
      <path id="Path_410" data-name="Path 410" d="M56.767,60.523H8.058a2.059,2.059,0,0,1-1.806-3.046L14.131,43.07l3.611,1.976L11.529,56.407H53.249L32.1,18.8,20.371,40.244,16.76,38.268l13.507-24.7a2.056,2.056,0,0,1,1.795-1.07,2.108,2.108,0,0,1,1.806,1.048l24.7,43.906a2.059,2.059,0,0,1-1.8,3.068Z" transform="translate(-6 -12.5)" fill="#fff"/>
    </g>
    <g id="Group_305" data-name="Group 305" transform="translate(60.956 49.74)">
      <path id="Path_411" data-name="Path 411" d="M43.632,49.186H30.6V45.069h9.547L29.3,25.446,24.67,34.524,21,32.652l6.388-12.53A2.059,2.059,0,0,1,29.19,19a2.008,2.008,0,0,1,1.836,1.062L45.432,46.131a2.057,2.057,0,0,1-1.8,3.054Z" transform="translate(-21.004 -19)" fill="#fff"/>
    </g>
    <g id="Group_306" data-name="Group 306" transform="translate(43.794 14.066)">
      <path id="Path_412" data-name="Path 412" d="M18.866,25.9H14.75V8.058A2.059,2.059,0,0,1,16.808,6H32.587a2.06,2.06,0,0,1,1.561,3.4l-2.966,3.46,2.969,3.463a2.057,2.057,0,0,1-1.564,3.4H18.866Zm0-10.291h9.245l-1.2-1.405a2.059,2.059,0,0,1,0-2.681l1.2-1.4H18.866Z" transform="translate(-14.75 -6)" fill="#fff"/>
    </g>
    <g id="Group_307" data-name="Group 307" transform="translate(36.5 46.996)">
      <path id="Path_413" data-name="Path 413" d="M25.56,26.232a2.049,2.049,0,0,1-1.454-.6l-2.662-2.662-2.662,2.662a2.057,2.057,0,0,1-2.766.132l-3.924-3.238,2.621-3.175,2.481,2.05L19.987,18.6a2.059,2.059,0,0,1,2.912,0L25.692,21.4l2.481-2.05,2.621,3.175L26.869,25.76a2.048,2.048,0,0,1-1.309.472Z" transform="translate(-12.092 -18)" fill="#fff"/>
    </g>
    <g id="Group_308" data-name="Group 308" transform="translate(8.806 75.809)">
      <path id="Path_414" data-name="Path 414" d="M2,28.5H89.813v4.116H2Z" transform="translate(-2 -28.5)" fill="#fff"/>
    </g>
  </g>
</svg>
