<svg xmlns="http://www.w3.org/2000/svg" width="22.749" height="48.781" viewBox="0 0 22.749 48.781">
  <path id="scroll" d="M150.158,0h-4.338a9.284,9.284,0,0,0-9.189,9.187l-.032,9.562a.715.715,0,0,0,.712.717h0a.715.715,0,0,0,.715-.712l.018-5.5h13.063a.715.715,0,0,0,0-1.429h-2.439V7.2a.715.715,0,1,0-1.429,0v4.629h-9.19l.009-2.637a7.864,7.864,0,0,1,7.76-7.76h1.421V3.786a.715.715,0,0,0,1.429,0V1.429h1.488a7.769,7.769,0,0,1,7.76,7.76v2.637h-3.4a.715.715,0,0,0,0,1.429h3.4V25.827a7.712,7.712,0,0,1-7.262,7.7V31.015a2.62,2.62,0,0,0-5.241,0v2.513a7.754,7.754,0,0,1-7.356-7.7V22.261a.715.715,0,1,0-1.429,0v3.566a9.185,9.185,0,0,0,8.786,9.132v4.928L143.028,37.5a2.62,2.62,0,0,0-3.706,3.706l6.813,6.813a2.633,2.633,0,0,0,3.706,0l2.656-2.656a.715.715,0,0,0-1.011-1.01l-2.656,2.656a1.2,1.2,0,0,1-1.684,0l-6.813-6.813a1.191,1.191,0,0,1,1.684-1.685l3.6,3.6a.727.727,0,0,0,1.23-.516V31.015a1.191,1.191,0,1,1,2.382,0V41.5a.727.727,0,0,0,1.23.516l3.5-3.5a1.191,1.191,0,1,1,1.684,1.684l-1.8,1.8A.715.715,0,0,0,154.855,43l1.8-1.8a2.62,2.62,0,0,0-3.706-3.706l-2.292,2.292V34.959a9.114,9.114,0,0,0,8.691-9.132V9.189A9.2,9.2,0,0,0,150.158,0Z" transform="translate(-136.598 0)" fill="#fff"/>
</svg>
